<svg xmlns="http://www.w3.org/2000/svg" width="1200" height="1200">
  <style>
    @charset "UTF-8";
    .title {
      font-family: "Noto Sans CJK JP","Noto Sans JP","IPAexGothic",
                   "Yu Gothic","Hiragino Kaku Gothic ProN",sans-serif;
      font-size: 28px; font-weight: 700; fill: #333;
    }
    .weekday, .day-number, .event {
      font-family: "Noto Sans CJK JP","Noto Sans JP","IPAexGothic",
                   "Yu Gothic","Hiragino Kaku Gothic ProN",sans-serif;
      fill: #222;
    }
    .weekday { font-size: 16px; font-weight: 600; }
    .day-number { font-size: 14px; }
    .event { font-size: 14px; }
    .cell { fill: #fff; stroke: #ddd; }
  </style>
  <rect x="0" y="0" width="1200" height="1200" fill="#fff"/>
  <text class="title" x="20" y="60">2025-11-23 〜 2025-12-20</text>

<text class="weekday" x="28.0" y="112">日</text>
<text class="weekday" x="193.71428571428572" y="112">月</text>
<text class="weekday" x="359.42857142857144" y="112">火</text>
<text class="weekday" x="525.1428571428571" y="112">水</text>
<text class="weekday" x="690.8571428571429" y="112">木</text>
<text class="weekday" x="856.5714285714287" y="112">金</text>
<text class="weekday" x="1022.2857142857143" y="112">土</text>
<rect x="20.0" y="120.0" width="165.71428571428572" height="265.0" fill="#fff7f9" stroke="#ddd"/>
<text class="day-number" x="163.71428571428572" y="138.0">23</text>
<rect x="185.71428571428572" y="120.0" width="165.71428571428572" height="265.0" fill="#ffffff" stroke="#ddd"/>
<text class="day-number" x="329.42857142857144" y="138.0">24</text>
<rect x="351.42857142857144" y="120.0" width="165.71428571428572" height="265.0" fill="#ffffff" stroke="#ddd"/>
<text class="day-number" x="495.1428571428571" y="138.0">25</text>
<rect x="517.1428571428571" y="120.0" width="165.71428571428572" height="265.0" fill="#ffffff" stroke="#ddd"/>
<text class="day-number" x="660.8571428571429" y="138.0">26</text>
<rect x="682.8571428571429" y="120.0" width="165.71428571428572" height="265.0" fill="#ffffff" stroke="#ddd"/>
<text class="day-number" x="826.5714285714287" y="138.0">27</text>
<rect x="848.5714285714287" y="120.0" width="165.71428571428572" height="265.0" fill="#ffffff" stroke="#ddd"/>
<text class="day-number" x="992.2857142857144" y="138.0">28</text>
<rect x="1014.2857142857143" y="120.0" width="165.71428571428572" height="265.0" fill="#f7f7ff" stroke="#ddd"/>
<text class="day-number" x="1158.0" y="138.0">29</text>
<rect x="20.0" y="385.0" width="165.71428571428572" height="265.0" fill="#fff7f9" stroke="#ddd"/>
<text class="day-number" x="163.71428571428572" y="403.0">30</text>
<rect x="185.71428571428572" y="385.0" width="165.71428571428572" height="265.0" fill="#ffffff" stroke="#ddd"/>
<text class="day-number" x="329.42857142857144" y="403.0">1</text>
<rect x="351.42857142857144" y="385.0" width="165.71428571428572" height="265.0" fill="#ffffff" stroke="#ddd"/>
<text class="day-number" x="495.1428571428571" y="403.0">2</text>
<rect x="517.1428571428571" y="385.0" width="165.71428571428572" height="265.0" fill="#ffffff" stroke="#ddd"/>
<text class="day-number" x="660.8571428571429" y="403.0">3</text>
<rect x="682.8571428571429" y="385.0" width="165.71428571428572" height="265.0" fill="#ffffff" stroke="#ddd"/>
<text class="day-number" x="826.5714285714287" y="403.0">4</text>
<rect x="848.5714285714287" y="385.0" width="165.71428571428572" height="265.0" fill="#ffffff" stroke="#ddd"/>
<text class="day-number" x="992.2857142857144" y="403.0">5</text>
<rect x="1014.2857142857143" y="385.0" width="165.71428571428572" height="265.0" fill="#fbff00" stroke="#ddd"/>
<text class="day-number" x="1158.0" y="403.0">6</text>
<rect x="20.0" y="650.0" width="165.71428571428572" height="265.0" fill="#fff7f9" stroke="#ddd"/>
<text class="day-number" x="163.71428571428572" y="668.0">7</text>
<rect x="185.71428571428572" y="650.0" width="165.71428571428572" height="265.0" fill="#ffffff" stroke="#ddd"/>
<text class="day-number" x="329.42857142857144" y="668.0">8</text>
<rect x="351.42857142857144" y="650.0" width="165.71428571428572" height="265.0" fill="#ffffff" stroke="#ddd"/>
<text class="day-number" x="495.1428571428571" y="668.0">9</text>
<rect x="517.1428571428571" y="650.0" width="165.71428571428572" height="265.0" fill="#ffffff" stroke="#ddd"/>
<text class="day-number" x="660.8571428571429" y="668.0">10</text>
<rect x="682.8571428571429" y="650.0" width="165.71428571428572" height="265.0" fill="#ffffff" stroke="#ddd"/>
<text class="day-number" x="826.5714285714287" y="668.0">11</text>
<rect x="848.5714285714287" y="650.0" width="165.71428571428572" height="265.0" fill="#ffffff" stroke="#ddd"/>
<text class="day-number" x="992.2857142857144" y="668.0">12</text>
<rect x="1014.2857142857143" y="650.0" width="165.71428571428572" height="265.0" fill="#f7f7ff" stroke="#ddd"/>
<text class="day-number" x="1158.0" y="668.0">13</text>
<rect x="20.0" y="915.0" width="165.71428571428572" height="265.0" fill="#fff7f9" stroke="#ddd"/>
<text class="day-number" x="163.71428571428572" y="933.0">14</text>
<rect x="185.71428571428572" y="915.0" width="165.71428571428572" height="265.0" fill="#ffffff" stroke="#ddd"/>
<text class="day-number" x="329.42857142857144" y="933.0">15</text>
<rect x="351.42857142857144" y="915.0" width="165.71428571428572" height="265.0" fill="#ffffff" stroke="#ddd"/>
<text class="day-number" x="495.1428571428571" y="933.0">16</text>
<rect x="517.1428571428571" y="915.0" width="165.71428571428572" height="265.0" fill="#ffffff" stroke="#ddd"/>
<text class="day-number" x="660.8571428571429" y="933.0">17</text>
<rect x="682.8571428571429" y="915.0" width="165.71428571428572" height="265.0" fill="#ffffff" stroke="#ddd"/>
<text class="day-number" x="826.5714285714287" y="933.0">18</text>
<rect x="848.5714285714287" y="915.0" width="165.71428571428572" height="265.0" fill="#ffffff" stroke="#ddd"/>
<text class="day-number" x="992.2857142857144" y="933.0">19</text>
<rect x="1014.2857142857143" y="915.0" width="165.71428571428572" height="265.0" fill="#f7f7ff" stroke="#ddd"/>
<text class="day-number" x="1158.0" y="933.0">20</text>
<rect x="22.0" y="142.0" width="162.71428571428572" height="18" fill="#d1f2eb" stroke="#b0b0b0"/>
<text class="event" x="26.0" y="156.0">野田武志: 結婚式</text>
<rect x="22.0" y="163.0" width="162.71428571428572" height="18" fill="#d6eaf8" stroke="#b0b0b0"/>
<text class="event" x="26.0" y="177.0">中村春貴: 私用</text>
<rect x="22.0" y="184.0" width="162.71428571428572" height="18" fill="#d6eaf8" stroke="#b0b0b0"/>
<text class="event" x="26.0" y="198.0">田中風舞: 体調が悪いです</text>
<rect x="22.0" y="205.0" width="328.42857142857144" height="18" fill="#cfe8ff" stroke="#b0b0b0"/>
<text class="event" x="26.0" y="219.0">音羽拓: 海外・私用</text>
<rect x="22.0" y="226.0" width="328.42857142857144" height="18" fill="#d5f5e3" stroke="#b0b0b0"/>
<text class="event" x="26.0" y="240.0">爲佐信彦: 私用</text>
<rect x="22.0" y="247.0" width="328.42857142857144" height="18" fill="#f6ddcc" stroke="#b0b0b0"/>
<text class="event" x="26.0" y="261.0">河崎将英: 沖縄旅行</text>
<rect x="22.0" y="268.0" width="328.42857142857144" height="18" fill="#f9e79f" stroke="#b0b0b0"/>
<text class="event" x="26.0" y="282.0">五十嵐遥斗: 家庭の用事</text>
<rect x="22.0" y="289.0" width="659.8571428571429" height="18" fill="#d6eaf8" stroke="#b0b0b0"/>
<text class="event" x="26.0" y="303.0">田中風舞: 体調不良</text>
<rect x="22.0" y="310.0" width="1157.0" height="18" fill="#cfe8ff" stroke="#b0b0b0"/>
<text class="event" x="26.0" y="324.0">黒橋拓: 交通事故の治療と対応</text>
<rect x="187.71428571428572" y="142.0" width="162.71428571428572" height="18" fill="#d5f5e3" stroke="#b0b0b0"/>
<text class="event" x="191.71428571428572" y="156.0">新康太朗: 大会</text>
<rect x="187.71428571428572" y="163.0" width="162.71428571428572" height="18" fill="#fdebd0" stroke="#b0b0b0"/>
<text class="event" x="191.71428571428572" y="177.0">岡彩乃: 体調不良</text>
<rect x="519.1428571428571" y="142.0" width="659.8571428571429" height="18" fill="#d1f2eb" stroke="#b0b0b0"/>
<text class="event" x="523.1428571428571" y="156.0">野田武志: たいちょうがよくない</text>
<rect x="850.5714285714287" y="163.0" width="328.42857142857133" height="18" fill="#d1f2eb" stroke="#b0b0b0"/>
<text class="event" x="854.5714285714287" y="177.0">小林愛実: 私用、部活の遠征</text>
<rect x="1016.2857142857143" y="184.0" width="162.71428571428567" height="18" fill="#fef9e7" stroke="#b0b0b0"/>
<text class="event" x="1020.2857142857143" y="198.0">亀田 龍亮: 私用</text>
<rect x="22.0" y="407.0" width="162.71428571428572" height="18" fill="#d1f2eb" stroke="#b0b0b0"/>
<text class="event" x="26.0" y="421.0">野田武志: 結婚式</text>
<rect x="22.0" y="428.0" width="162.71428571428572" height="18" fill="#d1f2eb" stroke="#b0b0b0"/>
<text class="event" x="26.0" y="442.0">小林愛実: 私用、部活の遠征</text>
<rect x="22.0" y="449.0" width="162.71428571428572" height="18" fill="#d1f2eb" stroke="#b0b0b0"/>
<text class="event" x="26.0" y="463.0">野田武志: たいちょうがよくない</text>
<rect x="22.0" y="470.0" width="162.71428571428572" height="18" fill="#fef9e7" stroke="#b0b0b0"/>
<text class="event" x="26.0" y="484.0">亀田 龍亮: 私用</text>
<rect x="22.0" y="491.0" width="1157.0" height="18" fill="#cfe8ff" stroke="#b0b0b0"/>
<text class="event" x="26.0" y="505.0">黒橋拓: 交通事故の治療と対応</text>
<rect x="353.42857142857144" y="407.0" width="825.5714285714286" height="18" fill="#f6ddcc" stroke="#b0b0b0"/>
<text class="event" x="357.42857142857144" y="421.0">山下颯太: いそがしい</text>
<rect x="519.1428571428571" y="428.0" width="659.8571428571429" height="18" fill="#fef9e7" stroke="#b0b0b0"/>
<text class="event" x="523.1428571428571" y="442.0">近藤潤: 体調不良</text>
<rect x="850.5714285714287" y="449.0" width="162.71428571428578" height="18" fill="#d6eaf8" stroke="#b0b0b0"/>
<text class="event" x="854.5714285714287" y="463.0">田中風舞: インターン</text>
<rect x="850.5714285714287" y="470.0" width="328.42857142857133" height="18" fill="#d5f5e3" stroke="#b0b0b0"/>
<text class="event" x="854.5714285714287" y="484.0">新康太朗: 私用、練習</text>
<rect x="22.0" y="672.0" width="162.71428571428572" height="18" fill="#cfe8ff" stroke="#b0b0b0"/>
<text class="event" x="26.0" y="686.0">黒橋拓: 交通事故の治療と対応</text>
<rect x="22.0" y="693.0" width="162.71428571428572" height="18" fill="#f6ddcc" stroke="#b0b0b0"/>
<text class="event" x="26.0" y="707.0">山下颯太: いそがしい</text>
<rect x="22.0" y="714.0" width="162.71428571428572" height="18" fill="#fef9e7" stroke="#b0b0b0"/>
<text class="event" x="26.0" y="728.0">近藤潤: 体調不良</text>
<rect x="22.0" y="735.0" width="162.71428571428572" height="18" fill="#d5f5e3" stroke="#b0b0b0"/>
<text class="event" x="26.0" y="749.0">新康太朗: 大会</text>
<rect x="187.71428571428572" y="672.0" width="162.71428571428572" height="18" fill="#fef9e7" stroke="#b0b0b0"/>
<text class="event" x="191.71428571428572" y="686.0">亀田 龍亮: 私用</text>
<rect x="187.71428571428572" y="937.0" width="825.5714285714287" height="18" fill="#d6eaf8" stroke="#b0b0b0"/>
<text class="event" x="191.71428571428572" y="951.0">田中風舞: インターン</text>
</svg>
