<svg xmlns="http://www.w3.org/2000/svg" width="1200" height="1200">
  <style>
    @charset "UTF-8";
    .title {
      font-family: "Noto Sans CJK JP","Noto Sans JP","IPAexGothic",
                   "Yu Gothic","Hiragino Kaku Gothic ProN",sans-serif;
      font-size: 28px; font-weight: 700; fill: #333;
    }
    .weekday, .day-number, .event {
      font-family: "Noto Sans CJK JP","Noto Sans JP","IPAexGothic",
                   "Yu Gothic","Hiragino Kaku Gothic ProN",sans-serif;
      fill: #222;
    }
    .weekday { font-size: 16px; font-weight: 600; }
    .day-number { font-size: 14px; }
    .event { font-size: 14px; }
    .cell { fill: #fff; stroke: #ddd; }
  </style>
  <rect x="0" y="0" width="1200" height="1200" fill="#fff"/>
  <text class="title" x="20" y="60">2025-10-05 〜 2025-11-01</text>

<text class="weekday" x="28.0" y="112">日</text>
<text class="weekday" x="193.71428571428572" y="112">月</text>
<text class="weekday" x="359.42857142857144" y="112">火</text>
<text class="weekday" x="525.1428571428571" y="112">水</text>
<text class="weekday" x="690.8571428571429" y="112">木</text>
<text class="weekday" x="856.5714285714287" y="112">金</text>
<text class="weekday" x="1022.2857142857143" y="112">土</text>
<rect x="20.0" y="120.0" width="165.71428571428572" height="265.0" fill="#fff7f9" stroke="#ddd"/>
<text class="day-number" x="163.71428571428572" y="138.0">5</text>
<rect x="185.71428571428572" y="120.0" width="165.71428571428572" height="265.0" fill="#ffffff" stroke="#ddd"/>
<text class="day-number" x="329.42857142857144" y="138.0">6</text>
<rect x="351.42857142857144" y="120.0" width="165.71428571428572" height="265.0" fill="#ffffff" stroke="#ddd"/>
<text class="day-number" x="495.1428571428571" y="138.0">7</text>
<rect x="517.1428571428571" y="120.0" width="165.71428571428572" height="265.0" fill="#ffffff" stroke="#ddd"/>
<text class="day-number" x="660.8571428571429" y="138.0">8</text>
<rect x="682.8571428571429" y="120.0" width="165.71428571428572" height="265.0" fill="#ffffff" stroke="#ddd"/>
<text class="day-number" x="826.5714285714287" y="138.0">9</text>
<rect x="848.5714285714287" y="120.0" width="165.71428571428572" height="265.0" fill="#ffffff" stroke="#ddd"/>
<text class="day-number" x="992.2857142857144" y="138.0">10</text>
<rect x="1014.2857142857143" y="120.0" width="165.71428571428572" height="265.0" fill="#f7f7ff" stroke="#ddd"/>
<text class="day-number" x="1158.0" y="138.0">11</text>
<rect x="20.0" y="385.0" width="165.71428571428572" height="265.0" fill="#fff7f9" stroke="#ddd"/>
<text class="day-number" x="163.71428571428572" y="403.0">12</text>
<rect x="185.71428571428572" y="385.0" width="165.71428571428572" height="265.0" fill="#ffffff" stroke="#ddd"/>
<text class="day-number" x="329.42857142857144" y="403.0">13</text>
<rect x="351.42857142857144" y="385.0" width="165.71428571428572" height="265.0" fill="#ffffff" stroke="#ddd"/>
<text class="day-number" x="495.1428571428571" y="403.0">14</text>
<rect x="517.1428571428571" y="385.0" width="165.71428571428572" height="265.0" fill="#ffffff" stroke="#ddd"/>
<text class="day-number" x="660.8571428571429" y="403.0">15</text>
<rect x="682.8571428571429" y="385.0" width="165.71428571428572" height="265.0" fill="#ffffff" stroke="#ddd"/>
<text class="day-number" x="826.5714285714287" y="403.0">16</text>
<rect x="848.5714285714287" y="385.0" width="165.71428571428572" height="265.0" fill="#ffffff" stroke="#ddd"/>
<text class="day-number" x="992.2857142857144" y="403.0">17</text>
<rect x="1014.2857142857143" y="385.0" width="165.71428571428572" height="265.0" fill="#fbff00" stroke="#ddd"/>
<text class="day-number" x="1158.0" y="403.0">18</text>
<rect x="20.0" y="650.0" width="165.71428571428572" height="265.0" fill="#fff7f9" stroke="#ddd"/>
<text class="day-number" x="163.71428571428572" y="668.0">19</text>
<rect x="185.71428571428572" y="650.0" width="165.71428571428572" height="265.0" fill="#ffffff" stroke="#ddd"/>
<text class="day-number" x="329.42857142857144" y="668.0">20</text>
<rect x="351.42857142857144" y="650.0" width="165.71428571428572" height="265.0" fill="#ffffff" stroke="#ddd"/>
<text class="day-number" x="495.1428571428571" y="668.0">21</text>
<rect x="517.1428571428571" y="650.0" width="165.71428571428572" height="265.0" fill="#ffffff" stroke="#ddd"/>
<text class="day-number" x="660.8571428571429" y="668.0">22</text>
<rect x="682.8571428571429" y="650.0" width="165.71428571428572" height="265.0" fill="#ffffff" stroke="#ddd"/>
<text class="day-number" x="826.5714285714287" y="668.0">23</text>
<rect x="848.5714285714287" y="650.0" width="165.71428571428572" height="265.0" fill="#ffffff" stroke="#ddd"/>
<text class="day-number" x="992.2857142857144" y="668.0">24</text>
<rect x="1014.2857142857143" y="650.0" width="165.71428571428572" height="265.0" fill="#f7f7ff" stroke="#ddd"/>
<text class="day-number" x="1158.0" y="668.0">25</text>
<rect x="20.0" y="915.0" width="165.71428571428572" height="265.0" fill="#fff7f9" stroke="#ddd"/>
<text class="day-number" x="163.71428571428572" y="933.0">26</text>
<rect x="185.71428571428572" y="915.0" width="165.71428571428572" height="265.0" fill="#ffffff" stroke="#ddd"/>
<text class="day-number" x="329.42857142857144" y="933.0">27</text>
<rect x="351.42857142857144" y="915.0" width="165.71428571428572" height="265.0" fill="#ffffff" stroke="#ddd"/>
<text class="day-number" x="495.1428571428571" y="933.0">28</text>
<rect x="517.1428571428571" y="915.0" width="165.71428571428572" height="265.0" fill="#ffffff" stroke="#ddd"/>
<text class="day-number" x="660.8571428571429" y="933.0">29</text>
<rect x="682.8571428571429" y="915.0" width="165.71428571428572" height="265.0" fill="#ffffff" stroke="#ddd"/>
<text class="day-number" x="826.5714285714287" y="933.0">30</text>
<rect x="848.5714285714287" y="915.0" width="165.71428571428572" height="265.0" fill="#ffffff" stroke="#ddd"/>
<text class="day-number" x="992.2857142857144" y="933.0">31</text>
<rect x="1014.2857142857143" y="915.0" width="165.71428571428572" height="265.0" fill="#f7f7ff" stroke="#ddd"/>
<text class="day-number" x="1158.0" y="933.0">1</text>
<rect x="22.0" y="142.0" width="1157.0" height="18" fill="#f6ddcc" stroke="#b0b0b0"/>
<text class="event" x="26.0" y="156.0">河崎将英: 卒業旅行(🇮🇩)</text>
<rect x="684.8571428571429" y="163.0" width="494.1428571428571" height="18" fill="#d5f5e3" stroke="#b0b0b0"/>
<text class="event" x="688.8571428571429" y="177.0">栗原豊季: トライアスロン大会運営</text>
<rect x="850.5714285714287" y="184.0" width="328.42857142857133" height="18" fill="#ffc7ce" stroke="#b0b0b0"/>
<text class="event" x="854.5714285714287" y="198.0">伊田彩桜: 学会・家族サービス</text>
<rect x="1016.2857142857143" y="205.0" width="162.71428571428567" height="18" fill="#f6ddcc" stroke="#b0b0b0"/>
<text class="event" x="1020.2857142857143" y="219.0">山下颯太: きゃんちゅーなど</text>
<rect x="1016.2857142857143" y="226.0" width="162.71428571428567" height="18" fill="#d5f5e3" stroke="#b0b0b0"/>
<text class="event" x="1020.2857142857143" y="240.0">新康太朗: ライブ</text>
<rect x="22.0" y="407.0" width="162.71428571428572" height="18" fill="#d5f5e3" stroke="#b0b0b0"/>
<text class="event" x="26.0" y="421.0">新康太朗: ライブ</text>
<rect x="22.0" y="428.0" width="328.42857142857144" height="18" fill="#f6ddcc" stroke="#b0b0b0"/>
<text class="event" x="26.0" y="442.0">河崎将英: 卒業旅行(🇮🇩)</text>
<rect x="22.0" y="449.0" width="328.42857142857144" height="18" fill="#f6ddcc" stroke="#b0b0b0"/>
<text class="event" x="26.0" y="463.0">山下颯太: きゃんちゅーなど</text>
<rect x="22.0" y="470.0" width="328.42857142857144" height="18" fill="#ffc7ce" stroke="#b0b0b0"/>
<text class="event" x="26.0" y="484.0">伊田彩桜: 学会・家族サービス</text>
<rect x="22.0" y="491.0" width="328.42857142857144" height="18" fill="#d5f5e3" stroke="#b0b0b0"/>
<text class="event" x="26.0" y="505.0">栗原豊季: トライアスロン大会運営</text>
<rect x="353.42857142857144" y="407.0" width="162.71428571428567" height="18" fill="#f9e79f" stroke="#b0b0b0"/>
<text class="event" x="357.42857142857144" y="421.0">五十嵐遥斗: 病院見学</text>
<rect x="684.8571428571429" y="407.0" width="162.71428571428578" height="18" fill="#f9e79f" stroke="#b0b0b0"/>
<text class="event" x="688.8571428571429" y="421.0">五十嵐遥斗: 病院見学</text>
<rect x="684.8571428571429" y="428.0" width="494.1428571428571" height="18" fill="#d6eaf8" stroke="#b0b0b0"/>
<text class="event" x="688.8571428571429" y="442.0">田中風舞: 箱根駅伝予選会</text>
<rect x="850.5714285714287" y="407.0" width="328.42857142857133" height="18" fill="#f9e79f" stroke="#b0b0b0"/>
<text class="event" x="854.5714285714287" y="421.0">兼光結実子: 試験勉強</text>
<rect x="1016.2857142857143" y="449.0" width="162.71428571428567" height="18" fill="#f9e79f" stroke="#b0b0b0"/>
<text class="event" x="1020.2857142857143" y="463.0">上田琉颯: 旅行</text>
<rect x="1016.2857142857143" y="470.0" width="162.71428571428567" height="18" fill="#ffc7ce" stroke="#b0b0b0"/>
<text class="event" x="1020.2857142857143" y="484.0">伊藤大輝: 体調不良</text>
<rect x="22.0" y="672.0" width="162.71428571428572" height="18" fill="#f9e79f" stroke="#b0b0b0"/>
<text class="event" x="26.0" y="686.0">上田琉颯: 旅行</text>
<rect x="22.0" y="693.0" width="162.71428571428572" height="18" fill="#ffc7ce" stroke="#b0b0b0"/>
<text class="event" x="26.0" y="707.0">伊藤大輝: 体調不良</text>
<rect x="22.0" y="714.0" width="328.42857142857144" height="18" fill="#f9e79f" stroke="#b0b0b0"/>
<text class="event" x="26.0" y="728.0">兼光結実子: 試験勉強</text>
<rect x="187.71428571428572" y="672.0" width="162.71428571428572" height="18" fill="#f9e79f" stroke="#b0b0b0"/>
<text class="event" x="191.71428571428572" y="686.0">五十嵐遥斗: 病院見学</text>
<rect x="353.42857142857144" y="672.0" width="825.5714285714286" height="18" fill="#d5f5e3" stroke="#b0b0b0"/>
<text class="event" x="357.42857142857144" y="686.0">栗原豊季: トライアスロン大会運営</text>
<rect x="684.8571428571429" y="693.0" width="162.71428571428578" height="18" fill="#f9e79f" stroke="#b0b0b0"/>
<text class="event" x="688.8571428571429" y="707.0">五十嵐遥斗: 病院見学</text>
<rect x="850.5714285714287" y="693.0" width="328.42857142857133" height="18" fill="#f9e79f" stroke="#b0b0b0"/>
<text class="event" x="854.5714285714287" y="707.0">五十嵐遥斗: シンガポール旅行</text>
<rect x="1016.2857142857143" y="714.0" width="162.71428571428567" height="18" fill="#d1f2eb" stroke="#b0b0b0"/>
<text class="event" x="1020.2857142857143" y="728.0">野田武志: 米子</text>
<rect x="1016.2857142857143" y="735.0" width="162.71428571428567" height="18" fill="#fdebd0" stroke="#b0b0b0"/>
<text class="event" x="1020.2857142857143" y="749.0">田中ふうま: 米子会</text>
<rect x="22.0" y="937.0" width="162.71428571428572" height="18" fill="#d1f2eb" stroke="#b0b0b0"/>
<text class="event" x="26.0" y="951.0">野田武志: 米子</text>
<rect x="22.0" y="958.0" width="162.71428571428572" height="18" fill="#fdebd0" stroke="#b0b0b0"/>
<text class="event" x="26.0" y="972.0">田中ふうま: 米子会</text>
<rect x="22.0" y="979.0" width="162.71428571428572" height="18" fill="#d5f5e3" stroke="#b0b0b0"/>
<text class="event" x="26.0" y="993.0">栗原豊季: トライアスロン大会運営</text>
<rect x="22.0" y="1000.0" width="162.71428571428572" height="18" fill="#f9e79f" stroke="#b0b0b0"/>
<text class="event" x="26.0" y="1014.0">五十嵐遥斗: シンガポール旅行</text>
<rect x="187.71428571428572" y="937.0" width="991.2857142857142" height="18" fill="#f5cba7" stroke="#b0b0b0"/>
<text class="event" x="191.71428571428572" y="951.0">松本悠汰: 部活動の大会</text>
<rect x="684.8571428571429" y="958.0" width="494.1428571428571" height="18" fill="#f6ddcc" stroke="#b0b0b0"/>
<text class="event" x="688.8571428571429" y="972.0">福田敦也: 学祭の準備等で</text>
<rect x="684.8571428571429" y="979.0" width="494.1428571428571" height="18" fill="#d1f2eb" stroke="#b0b0b0"/>
<text class="event" x="688.8571428571429" y="993.0">野田武志: 瀬戸芸</text>
</svg>
