<svg xmlns="http://www.w3.org/2000/svg" width="1200" height="1200">
  <style>
    @charset "UTF-8";
    .title {
      font-family: "Noto Sans CJK JP","Noto Sans JP","IPAexGothic",
                   "Yu Gothic","Hiragino Kaku Gothic ProN",sans-serif;
      font-size: 28px; font-weight: 700; fill: #333;
    }
    .weekday, .day-number, .event {
      font-family: "Noto Sans CJK JP","Noto Sans JP","IPAexGothic",
                   "Yu Gothic","Hiragino Kaku Gothic ProN",sans-serif;
      fill: #222;
    }
    .weekday { font-size: 16px; font-weight: 600; }
    .day-number { font-size: 14px; }
    .event { font-size: 14px; }
    .cell { fill: #fff; stroke: #ddd; }
  </style>
  <rect x="0" y="0" width="1200" height="1200" fill="#fff"/>
  <text class="title" x="20" y="60">2026-07-12 〜 2026-08-08</text>

<text class="weekday" x="28.0" y="112">日</text>
<text class="weekday" x="193.71428571428572" y="112">月</text>
<text class="weekday" x="359.42857142857144" y="112">火</text>
<text class="weekday" x="525.1428571428571" y="112">水</text>
<text class="weekday" x="690.8571428571429" y="112">木</text>
<text class="weekday" x="856.5714285714287" y="112">金</text>
<text class="weekday" x="1022.2857142857143" y="112">土</text>
<rect x="20.0" y="120.0" width="165.71428571428572" height="265.0" fill="#fff7f9" stroke="#ddd"/>
<text class="day-number" x="163.71428571428572" y="138.0">12</text>
<rect x="185.71428571428572" y="120.0" width="165.71428571428572" height="265.0" fill="#ffffff" stroke="#ddd"/>
<text class="day-number" x="329.42857142857144" y="138.0">13</text>
<rect x="351.42857142857144" y="120.0" width="165.71428571428572" height="265.0" fill="#ffffff" stroke="#ddd"/>
<text class="day-number" x="495.1428571428571" y="138.0">14</text>
<rect x="517.1428571428571" y="120.0" width="165.71428571428572" height="265.0" fill="#ffffff" stroke="#ddd"/>
<text class="day-number" x="660.8571428571429" y="138.0">15</text>
<rect x="682.8571428571429" y="120.0" width="165.71428571428572" height="265.0" fill="#ffffff" stroke="#ddd"/>
<text class="day-number" x="826.5714285714287" y="138.0">16</text>
<rect x="848.5714285714287" y="120.0" width="165.71428571428572" height="265.0" fill="#ffffff" stroke="#ddd"/>
<text class="day-number" x="992.2857142857144" y="138.0">17</text>
<rect x="1014.2857142857143" y="120.0" width="165.71428571428572" height="265.0" fill="#f7f7ff" stroke="#ddd"/>
<text class="day-number" x="1158.0" y="138.0">18</text>
<rect x="20.0" y="385.0" width="165.71428571428572" height="265.0" fill="#fff7f9" stroke="#ddd"/>
<text class="day-number" x="163.71428571428572" y="403.0">19</text>
<rect x="185.71428571428572" y="385.0" width="165.71428571428572" height="265.0" fill="#ffffff" stroke="#ddd"/>
<text class="day-number" x="329.42857142857144" y="403.0">20</text>
<rect x="351.42857142857144" y="385.0" width="165.71428571428572" height="265.0" fill="#fbff00" stroke="#ddd"/>
<text class="day-number" x="495.1428571428571" y="403.0">21</text>
<rect x="517.1428571428571" y="385.0" width="165.71428571428572" height="265.0" fill="#ffffff" stroke="#ddd"/>
<text class="day-number" x="660.8571428571429" y="403.0">22</text>
<rect x="682.8571428571429" y="385.0" width="165.71428571428572" height="265.0" fill="#ffffff" stroke="#ddd"/>
<text class="day-number" x="826.5714285714287" y="403.0">23</text>
<rect x="848.5714285714287" y="385.0" width="165.71428571428572" height="265.0" fill="#ffffff" stroke="#ddd"/>
<text class="day-number" x="992.2857142857144" y="403.0">24</text>
<rect x="1014.2857142857143" y="385.0" width="165.71428571428572" height="265.0" fill="#f7f7ff" stroke="#ddd"/>
<text class="day-number" x="1158.0" y="403.0">25</text>
<rect x="20.0" y="650.0" width="165.71428571428572" height="265.0" fill="#fff7f9" stroke="#ddd"/>
<text class="day-number" x="163.71428571428572" y="668.0">26</text>
<rect x="185.71428571428572" y="650.0" width="165.71428571428572" height="265.0" fill="#ffffff" stroke="#ddd"/>
<text class="day-number" x="329.42857142857144" y="668.0">27</text>
<rect x="351.42857142857144" y="650.0" width="165.71428571428572" height="265.0" fill="#ffffff" stroke="#ddd"/>
<text class="day-number" x="495.1428571428571" y="668.0">28</text>
<rect x="517.1428571428571" y="650.0" width="165.71428571428572" height="265.0" fill="#ffffff" stroke="#ddd"/>
<text class="day-number" x="660.8571428571429" y="668.0">29</text>
<rect x="682.8571428571429" y="650.0" width="165.71428571428572" height="265.0" fill="#ffffff" stroke="#ddd"/>
<text class="day-number" x="826.5714285714287" y="668.0">30</text>
<rect x="848.5714285714287" y="650.0" width="165.71428571428572" height="265.0" fill="#ffffff" stroke="#ddd"/>
<text class="day-number" x="992.2857142857144" y="668.0">31</text>
<rect x="1014.2857142857143" y="650.0" width="165.71428571428572" height="265.0" fill="#f7f7ff" stroke="#ddd"/>
<text class="day-number" x="1158.0" y="668.0">1</text>
<rect x="20.0" y="915.0" width="165.71428571428572" height="265.0" fill="#fff7f9" stroke="#ddd"/>
<text class="day-number" x="163.71428571428572" y="933.0">2</text>
<rect x="185.71428571428572" y="915.0" width="165.71428571428572" height="265.0" fill="#ffffff" stroke="#ddd"/>
<text class="day-number" x="329.42857142857144" y="933.0">3</text>
<rect x="351.42857142857144" y="915.0" width="165.71428571428572" height="265.0" fill="#ffffff" stroke="#ddd"/>
<text class="day-number" x="495.1428571428571" y="933.0">4</text>
<rect x="517.1428571428571" y="915.0" width="165.71428571428572" height="265.0" fill="#ffffff" stroke="#ddd"/>
<text class="day-number" x="660.8571428571429" y="933.0">5</text>
<rect x="682.8571428571429" y="915.0" width="165.71428571428572" height="265.0" fill="#ffffff" stroke="#ddd"/>
<text class="day-number" x="826.5714285714287" y="933.0">6</text>
<rect x="848.5714285714287" y="915.0" width="165.71428571428572" height="265.0" fill="#ffffff" stroke="#ddd"/>
<text class="day-number" x="992.2857142857144" y="933.0">7</text>
<rect x="1014.2857142857143" y="915.0" width="165.71428571428572" height="265.0" fill="#f7f7ff" stroke="#ddd"/>
<text class="day-number" x="1158.0" y="933.0">8</text>
<rect x="22.0" y="142.0" width="162.71428571428572" height="18" fill="#d5f5e3" stroke="#b0b0b0"/>
<text class="event" x="26.0" y="156.0">爲佐信彦: おやすみ</text>
<rect x="22.0" y="163.0" width="328.42857142857144" height="18" fill="#fdebd0" stroke="#b0b0b0"/>
<text class="event" x="26.0" y="177.0">細井亮太: 旅行(ラボ同期と)</text>
<rect x="22.0" y="184.0" width="1157.0" height="18" fill="#d6eaf8" stroke="#b0b0b0"/>
<text class="event" x="26.0" y="198.0">田中風舞: 試験勉強</text>
<rect x="22.0" y="205.0" width="1157.0" height="18" fill="#f9e79f" stroke="#b0b0b0"/>
<text class="event" x="26.0" y="219.0">兼光結実子: 試験勉強</text>
<rect x="187.71428571428572" y="142.0" width="825.5714285714287" height="18" fill="#f9e79f" stroke="#b0b0b0"/>
<text class="event" x="191.71428571428572" y="156.0">五十嵐遥斗: 学外実習</text>
<rect x="187.71428571428572" y="226.0" width="991.2857142857142" height="18" fill="#f6ddcc" stroke="#b0b0b0"/>
<text class="event" x="191.71428571428572" y="240.0">山下颯太: 院試勉強</text>
<rect x="1016.2857142857143" y="142.0" width="162.71428571428567" height="18" fill="#ffc7ce" stroke="#b0b0b0"/>
<text class="event" x="1020.2857142857143" y="156.0">伊田彩桜: ディズニー</text>
<rect x="22.0" y="407.0" width="328.42857142857144" height="18" fill="#ffc7ce" stroke="#b0b0b0"/>
<text class="event" x="26.0" y="421.0">伊田彩桜: ディズニー</text>
<rect x="22.0" y="428.0" width="991.2857142857144" height="18" fill="#f9e79f" stroke="#b0b0b0"/>
<text class="event" x="26.0" y="442.0">兼光結実子: 試験勉強</text>
<rect x="22.0" y="449.0" width="1157.0" height="18" fill="#d6eaf8" stroke="#b0b0b0"/>
<text class="event" x="26.0" y="463.0">田中風舞: 試験勉強</text>
<rect x="22.0" y="470.0" width="1157.0" height="18" fill="#f6ddcc" stroke="#b0b0b0"/>
<text class="event" x="26.0" y="484.0">山下颯太: 院試勉強</text>
<rect x="187.71428571428572" y="491.0" width="162.71428571428572" height="18" fill="#d5f5e3" stroke="#b0b0b0"/>
<text class="event" x="191.71428571428572" y="505.0">爲佐信彦: 休養</text>
<rect x="187.71428571428572" y="512.0" width="991.2857142857142" height="18" fill="#d5f5e3" stroke="#b0b0b0"/>
<text class="event" x="191.71428571428572" y="526.0">新康太朗: 試験勉強</text>
<rect x="353.42857142857144" y="407.0" width="659.857142857143" height="18" fill="#d5f5e3" stroke="#b0b0b0"/>
<text class="event" x="357.42857142857144" y="421.0">爲佐信彦: だいじなしけん</text>
<rect x="684.8571428571429" y="491.0" width="494.1428571428571" height="18" fill="#fef9e7" stroke="#b0b0b0"/>
<text class="event" x="688.8571428571429" y="505.0">土田裕嵩: 大会</text>
<rect x="1016.2857142857143" y="407.0" width="162.71428571428567" height="18" fill="#f5cba7" stroke="#b0b0b0"/>
<text class="event" x="1020.2857142857143" y="421.0">大鶴康祐: 国際学会参加</text>
<rect x="1016.2857142857143" y="428.0" width="162.71428571428567" height="18" fill="#f5cba7" stroke="#b0b0b0"/>
<text class="event" x="1020.2857142857143" y="442.0">須藤諒也: 院試勉強のため</text>
<rect x="22.0" y="672.0" width="328.42857142857144" height="18" fill="#d6eaf8" stroke="#b0b0b0"/>
<text class="event" x="26.0" y="686.0">田中風舞: 試験勉強</text>
<rect x="22.0" y="693.0" width="659.8571428571429" height="18" fill="#fef9e7" stroke="#b0b0b0"/>
<text class="event" x="26.0" y="707.0">土田裕嵩: 大会</text>
<rect x="22.0" y="714.0" width="1157.0" height="18" fill="#f6ddcc" stroke="#b0b0b0"/>
<text class="event" x="26.0" y="728.0">山下颯太: 院試勉強</text>
<rect x="22.0" y="735.0" width="1157.0" height="18" fill="#f5cba7" stroke="#b0b0b0"/>
<text class="event" x="26.0" y="749.0">大鶴康祐: 国際学会参加</text>
<rect x="22.0" y="756.0" width="1157.0" height="18" fill="#f5cba7" stroke="#b0b0b0"/>
<text class="event" x="26.0" y="770.0">須藤諒也: 院試勉強のため</text>
<rect x="22.0" y="777.0" width="1157.0" height="18" fill="#d5f5e3" stroke="#b0b0b0"/>
<text class="event" x="26.0" y="791.0">新康太朗: 試験勉強</text>
<rect x="187.71428571428572" y="798.0" width="659.8571428571429" height="18" fill="#f9e79f" stroke="#b0b0b0"/>
<text class="event" x="191.71428571428572" y="812.0">兼光結実子: 🇰🇷</text>
<rect x="187.71428571428572" y="819.0" width="991.2857142857142" height="18" fill="#e8daef" stroke="#b0b0b0"/>
<text class="event" x="191.71428571428572" y="833.0">郷田真佑: インターン</text>
<rect x="353.42857142857144" y="672.0" width="328.42857142857144" height="18" fill="#f9e79f" stroke="#b0b0b0"/>
<text class="event" x="357.42857142857144" y="686.0">上田琉颯: インターン</text>
<rect x="353.42857142857144" y="840.0" width="494.1428571428572" height="18" fill="#d5f5e3" stroke="#b0b0b0"/>
<text class="event" x="357.42857142857144" y="854.0">爲佐信彦: 大事な試験Part2</text>
<rect x="519.1428571428571" y="861.0" width="659.8571428571429" height="18" fill="#fdebd0" stroke="#b0b0b0"/>
<text class="event" x="523.1428571428571" y="875.0">細井亮太: 日本神経科学会(Neuro2026)</text>
<rect x="22.0" y="937.0" width="162.71428571428572" height="18" fill="#d6eaf8" stroke="#b0b0b0"/>
<text class="event" x="26.0" y="951.0">田中風舞: 大阪</text>
<rect x="22.0" y="958.0" width="162.71428571428572" height="18" fill="#f6ddcc" stroke="#b0b0b0"/>
<text class="event" x="26.0" y="972.0">山下颯太: 院試勉強</text>
<rect x="22.0" y="979.0" width="162.71428571428572" height="18" fill="#fdebd0" stroke="#b0b0b0"/>
<text class="event" x="26.0" y="993.0">細井亮太: 日本神経科学会(Neuro2026)</text>
<rect x="22.0" y="1000.0" width="328.42857142857144" height="18" fill="#f5cba7" stroke="#b0b0b0"/>
<text class="event" x="26.0" y="1014.0">大鶴康祐: 国際学会参加</text>
<rect x="22.0" y="1021.0" width="494.1428571428571" height="18" fill="#d5f5e3" stroke="#b0b0b0"/>
<text class="event" x="26.0" y="1035.0">新康太朗: 試験勉強</text>
<rect x="22.0" y="1042.0" width="991.2857142857144" height="18" fill="#e8daef" stroke="#b0b0b0"/>
<text class="event" x="26.0" y="1056.0">郷田真佑: インターン</text>
<rect x="22.0" y="1063.0" width="1157.0" height="18" fill="#fdebd0" stroke="#b0b0b0"/>
<text class="event" x="26.0" y="1077.0">磯貝梢: 留学のため</text>
<rect x="22.0" y="1084.0" width="1157.0" height="18" fill="#f5cba7" stroke="#b0b0b0"/>
<text class="event" x="26.0" y="1098.0">須藤諒也: 院試勉強のため</text>
<rect x="519.1428571428571" y="937.0" width="494.14285714285734" height="18" fill="#f9e79f" stroke="#b0b0b0"/>
<text class="event" x="523.1428571428571" y="951.0">上田琉颯: インターン</text>
<rect x="519.1428571428571" y="958.0" width="659.8571428571429" height="18" fill="#d6eaf8" stroke="#b0b0b0"/>
<text class="event" x="523.1428571428571" y="972.0">田中風舞: 北海道合宿</text>
<rect x="519.1428571428571" y="979.0" width="659.8571428571429" height="18" fill="#d1f2eb" stroke="#b0b0b0"/>
<text class="event" x="523.1428571428571" y="993.0">松本颯太: 奈良でTA</text>
<rect x="684.8571428571429" y="1000.0" width="494.1428571428571" height="18" fill="#d5f5e3" stroke="#b0b0b0"/>
<text class="event" x="688.8571428571429" y="1014.0">柴田彩音: ヨーロッパ旅行</text>
<rect x="1016.2857142857143" y="937.0" width="162.71428571428567" height="18" fill="#e8daef" stroke="#b0b0b0"/>
<text class="event" x="1020.2857142857143" y="951.0">亀田龍亮: 西医体</text>
</svg>
