<svg xmlns="http://www.w3.org/2000/svg" width="1200" height="720">
  <style>
    @charset "UTF-8";
    .title {
      font-family: "Noto Sans CJK JP","Noto Sans JP","IPAexGothic",
                   "Yu Gothic","Hiragino Kaku Gothic ProN",sans-serif;
      font-size: 28px; font-weight: 700; fill: #333;
    }
    .weekday, .day-number, .event {
      font-family: "Noto Sans CJK JP","Noto Sans JP","IPAexGothic",
                   "Yu Gothic","Hiragino Kaku Gothic ProN",sans-serif;
      fill: #222;
    }
    .weekday { font-size: 16px; font-weight: 600; }
    .day-number { font-size: 14px; }
    .event { font-size: 14px; }
    .cell { fill: #fff; stroke: #ddd; }
  </style>
  <rect x="0" y="0" width="1200" height="720" fill="#fff"/>
  <text class="title" x="20" y="60">2025-08-24 〜 2025-09-20</text>

<text class="weekday" x="28.0" y="112">日</text>
<text class="weekday" x="193.71428571428572" y="112">月</text>
<text class="weekday" x="359.42857142857144" y="112">火</text>
<text class="weekday" x="525.1428571428571" y="112">水</text>
<text class="weekday" x="690.8571428571429" y="112">木</text>
<text class="weekday" x="856.5714285714287" y="112">金</text>
<text class="weekday" x="1022.2857142857143" y="112">土</text>
<rect class="cell" x="20.0" y="120.0" width="165.71428571428572" height="145.0" fill="#fde2e2" stroke="#ddd"/>
<text class="day-number" x="163.71428571428572" y="138.0">24</text>
<rect class="cell" x="185.71428571428572" y="120.0" width="165.71428571428572" height="145.0" fill="#ffffff" stroke="#ddd"/>
<text class="day-number" x="329.42857142857144" y="138.0">25</text>
<rect class="cell" x="351.42857142857144" y="120.0" width="165.71428571428572" height="145.0" fill="#ffffff" stroke="#ddd"/>
<text class="day-number" x="495.1428571428571" y="138.0">26</text>
<rect class="cell" x="517.1428571428571" y="120.0" width="165.71428571428572" height="145.0" fill="#ffffff" stroke="#ddd"/>
<text class="day-number" x="660.8571428571429" y="138.0">27</text>
<rect class="cell" x="682.8571428571429" y="120.0" width="165.71428571428572" height="145.0" fill="#ffffff" stroke="#ddd"/>
<text class="day-number" x="826.5714285714287" y="138.0">28</text>
<rect class="cell" x="848.5714285714287" y="120.0" width="165.71428571428572" height="145.0" fill="#ffffff" stroke="#ddd"/>
<text class="day-number" x="992.2857142857144" y="138.0">29</text>
<rect class="cell" x="1014.2857142857143" y="120.0" width="165.71428571428572" height="145.0" fill="#e5f1ff" stroke="#ddd"/>
<text class="day-number" x="1158.0" y="138.0">30</text>
<rect class="cell" x="20.0" y="265.0" width="165.71428571428572" height="145.0" fill="#fde2e2" stroke="#ddd"/>
<text class="day-number" x="163.71428571428572" y="283.0">31</text>
<rect class="cell" x="185.71428571428572" y="265.0" width="165.71428571428572" height="145.0" fill="#ffffff" stroke="#ddd"/>
<text class="day-number" x="329.42857142857144" y="283.0">1</text>
<rect class="cell" x="351.42857142857144" y="265.0" width="165.71428571428572" height="145.0" fill="#ffffff" stroke="#ddd"/>
<text class="day-number" x="495.1428571428571" y="283.0">2</text>
<rect class="cell" x="517.1428571428571" y="265.0" width="165.71428571428572" height="145.0" fill="#fff8b3" stroke="#ddd"/>
<text class="day-number" x="660.8571428571429" y="283.0">3</text>
<rect class="cell" x="682.8571428571429" y="265.0" width="165.71428571428572" height="145.0" fill="#ffffff" stroke="#ddd"/>
<text class="day-number" x="826.5714285714287" y="283.0">4</text>
<rect class="cell" x="848.5714285714287" y="265.0" width="165.71428571428572" height="145.0" fill="#ffffff" stroke="#ddd"/>
<text class="day-number" x="992.2857142857144" y="283.0">5</text>
<rect class="cell" x="1014.2857142857143" y="265.0" width="165.71428571428572" height="145.0" fill="#e5f1ff" stroke="#ddd"/>
<text class="day-number" x="1158.0" y="283.0">6</text>
<rect class="cell" x="20.0" y="410.0" width="165.71428571428572" height="145.0" fill="#fde2e2" stroke="#ddd"/>
<text class="day-number" x="163.71428571428572" y="428.0">7</text>
<rect class="cell" x="185.71428571428572" y="410.0" width="165.71428571428572" height="145.0" fill="#ffffff" stroke="#ddd"/>
<text class="day-number" x="329.42857142857144" y="428.0">8</text>
<rect class="cell" x="351.42857142857144" y="410.0" width="165.71428571428572" height="145.0" fill="#ffffff" stroke="#ddd"/>
<text class="day-number" x="495.1428571428571" y="428.0">9</text>
<rect class="cell" x="517.1428571428571" y="410.0" width="165.71428571428572" height="145.0" fill="#ffffff" stroke="#ddd"/>
<text class="day-number" x="660.8571428571429" y="428.0">10</text>
<rect class="cell" x="682.8571428571429" y="410.0" width="165.71428571428572" height="145.0" fill="#ffffff" stroke="#ddd"/>
<text class="day-number" x="826.5714285714287" y="428.0">11</text>
<rect class="cell" x="848.5714285714287" y="410.0" width="165.71428571428572" height="145.0" fill="#ffffff" stroke="#ddd"/>
<text class="day-number" x="992.2857142857144" y="428.0">12</text>
<rect class="cell" x="1014.2857142857143" y="410.0" width="165.71428571428572" height="145.0" fill="#e5f1ff" stroke="#ddd"/>
<text class="day-number" x="1158.0" y="428.0">13</text>
<rect class="cell" x="20.0" y="555.0" width="165.71428571428572" height="145.0" fill="#fde2e2" stroke="#ddd"/>
<text class="day-number" x="163.71428571428572" y="573.0">14</text>
<rect class="cell" x="185.71428571428572" y="555.0" width="165.71428571428572" height="145.0" fill="#ffffff" stroke="#ddd"/>
<text class="day-number" x="329.42857142857144" y="573.0">15</text>
<rect class="cell" x="351.42857142857144" y="555.0" width="165.71428571428572" height="145.0" fill="#ffffff" stroke="#ddd"/>
<text class="day-number" x="495.1428571428571" y="573.0">16</text>
<rect class="cell" x="517.1428571428571" y="555.0" width="165.71428571428572" height="145.0" fill="#ffffff" stroke="#ddd"/>
<text class="day-number" x="660.8571428571429" y="573.0">17</text>
<rect class="cell" x="682.8571428571429" y="555.0" width="165.71428571428572" height="145.0" fill="#ffffff" stroke="#ddd"/>
<text class="day-number" x="826.5714285714287" y="573.0">18</text>
<rect class="cell" x="848.5714285714287" y="555.0" width="165.71428571428572" height="145.0" fill="#ffffff" stroke="#ddd"/>
<text class="day-number" x="992.2857142857144" y="573.0">19</text>
<rect class="cell" x="1014.2857142857143" y="555.0" width="165.71428571428572" height="145.0" fill="#e5f1ff" stroke="#ddd"/>
<text class="day-number" x="1158.0" y="573.0">20</text>
<rect x="22.0" y="142.0" width="991.2857142857144" height="18" fill="#ffc7ce" stroke="#b0b0b0"/>
<text class="event" x="26.0" y="156.0">田中: 夏季休暇</text>
<rect x="22.0" y="163.0" width="991.2857142857144" height="18" fill="#f9e79f" stroke="#b0b0b0"/>
<text class="event" x="26.0" y="177.0">佐藤: サボり</text>
</svg>
