<svg xmlns="http://www.w3.org/2000/svg" width="1200" height="720">
  <style>
    @charset "UTF-8";
    .title {
      font-family: "Noto Sans CJK JP","Noto Sans JP","IPAexGothic",
                   "Yu Gothic","Hiragino Kaku Gothic ProN",sans-serif;
      font-size: 28px; font-weight: 700; fill: #333;
    }
    .weekday, .day-number, .event {
      font-family: "Noto Sans CJK JP","Noto Sans JP","IPAexGothic",
                   "Yu Gothic","Hiragino Kaku Gothic ProN",sans-serif;
      fill: #222;
    }
    .weekday { font-size: 16px; font-weight: 600; }
    .day-number { font-size: 14px; }
    .event { font-size: 14px; }
    .cell { fill: #fff; stroke: #ddd; }
  </style>
  <rect x="0" y="0" width="1200" height="720" fill="#fff"/>
  <text class="title" x="20" y="60">2025-09-07 〜 2025-10-04</text>

<text class="weekday" x="28.0" y="112">日</text>
<text class="weekday" x="193.71428571428572" y="112">月</text>
<text class="weekday" x="359.42857142857144" y="112">火</text>
<text class="weekday" x="525.1428571428571" y="112">水</text>
<text class="weekday" x="690.8571428571429" y="112">木</text>
<text class="weekday" x="856.5714285714287" y="112">金</text>
<text class="weekday" x="1022.2857142857143" y="112">土</text>
<rect class="cell" x="20.0" y="120.0" width="165.71428571428572" height="145.0" fill="#fde2e2" stroke="#ddd"/>
<text class="day-number" x="163.71428571428572" y="138.0">7</text>
<rect class="cell" x="185.71428571428572" y="120.0" width="165.71428571428572" height="145.0" fill="#ffffff" stroke="#ddd"/>
<text class="day-number" x="329.42857142857144" y="138.0">8</text>
<rect class="cell" x="351.42857142857144" y="120.0" width="165.71428571428572" height="145.0" fill="#ffffff" stroke="#ddd"/>
<text class="day-number" x="495.1428571428571" y="138.0">9</text>
<rect class="cell" x="517.1428571428571" y="120.0" width="165.71428571428572" height="145.0" fill="#ffffff" stroke="#ddd"/>
<text class="day-number" x="660.8571428571429" y="138.0">10</text>
<rect class="cell" x="682.8571428571429" y="120.0" width="165.71428571428572" height="145.0" fill="#ffffff" stroke="#ddd"/>
<text class="day-number" x="826.5714285714287" y="138.0">11</text>
<rect class="cell" x="848.5714285714287" y="120.0" width="165.71428571428572" height="145.0" fill="#ffffff" stroke="#ddd"/>
<text class="day-number" x="992.2857142857144" y="138.0">12</text>
<rect class="cell" x="1014.2857142857143" y="120.0" width="165.71428571428572" height="145.0" fill="#e5f1ff" stroke="#ddd"/>
<text class="day-number" x="1158.0" y="138.0">13</text>
<rect class="cell" x="20.0" y="265.0" width="165.71428571428572" height="145.0" fill="#fde2e2" stroke="#ddd"/>
<text class="day-number" x="163.71428571428572" y="283.0">14</text>
<rect class="cell" x="185.71428571428572" y="265.0" width="165.71428571428572" height="145.0" fill="#ffffff" stroke="#ddd"/>
<text class="day-number" x="329.42857142857144" y="283.0">15</text>
<rect class="cell" x="351.42857142857144" y="265.0" width="165.71428571428572" height="145.0" fill="#ffffff" stroke="#ddd"/>
<text class="day-number" x="495.1428571428571" y="283.0">16</text>
<rect class="cell" x="517.1428571428571" y="265.0" width="165.71428571428572" height="145.0" fill="#ffffff" stroke="#ddd"/>
<text class="day-number" x="660.8571428571429" y="283.0">17</text>
<rect class="cell" x="682.8571428571429" y="265.0" width="165.71428571428572" height="145.0" fill="#ffffff" stroke="#ddd"/>
<text class="day-number" x="826.5714285714287" y="283.0">18</text>
<rect class="cell" x="848.5714285714287" y="265.0" width="165.71428571428572" height="145.0" fill="#fff8b3" stroke="#ddd"/>
<text class="day-number" x="992.2857142857144" y="283.0">19</text>
<rect class="cell" x="1014.2857142857143" y="265.0" width="165.71428571428572" height="145.0" fill="#e5f1ff" stroke="#ddd"/>
<text class="day-number" x="1158.0" y="283.0">20</text>
<rect class="cell" x="20.0" y="410.0" width="165.71428571428572" height="145.0" fill="#fde2e2" stroke="#ddd"/>
<text class="day-number" x="163.71428571428572" y="428.0">21</text>
<rect class="cell" x="185.71428571428572" y="410.0" width="165.71428571428572" height="145.0" fill="#ffffff" stroke="#ddd"/>
<text class="day-number" x="329.42857142857144" y="428.0">22</text>
<rect class="cell" x="351.42857142857144" y="410.0" width="165.71428571428572" height="145.0" fill="#ffffff" stroke="#ddd"/>
<text class="day-number" x="495.1428571428571" y="428.0">23</text>
<rect class="cell" x="517.1428571428571" y="410.0" width="165.71428571428572" height="145.0" fill="#ffffff" stroke="#ddd"/>
<text class="day-number" x="660.8571428571429" y="428.0">24</text>
<rect class="cell" x="682.8571428571429" y="410.0" width="165.71428571428572" height="145.0" fill="#ffffff" stroke="#ddd"/>
<text class="day-number" x="826.5714285714287" y="428.0">25</text>
<rect class="cell" x="848.5714285714287" y="410.0" width="165.71428571428572" height="145.0" fill="#ffffff" stroke="#ddd"/>
<text class="day-number" x="992.2857142857144" y="428.0">26</text>
<rect class="cell" x="1014.2857142857143" y="410.0" width="165.71428571428572" height="145.0" fill="#e5f1ff" stroke="#ddd"/>
<text class="day-number" x="1158.0" y="428.0">27</text>
<rect class="cell" x="20.0" y="555.0" width="165.71428571428572" height="145.0" fill="#fde2e2" stroke="#ddd"/>
<text class="day-number" x="163.71428571428572" y="573.0">28</text>
<rect class="cell" x="185.71428571428572" y="555.0" width="165.71428571428572" height="145.0" fill="#ffffff" stroke="#ddd"/>
<text class="day-number" x="329.42857142857144" y="573.0">29</text>
<rect class="cell" x="351.42857142857144" y="555.0" width="165.71428571428572" height="145.0" fill="#ffffff" stroke="#ddd"/>
<text class="day-number" x="495.1428571428571" y="573.0">30</text>
<rect class="cell" x="517.1428571428571" y="555.0" width="165.71428571428572" height="145.0" fill="#ffffff" stroke="#ddd"/>
<text class="day-number" x="660.8571428571429" y="573.0">1</text>
<rect class="cell" x="682.8571428571429" y="555.0" width="165.71428571428572" height="145.0" fill="#ffffff" stroke="#ddd"/>
<text class="day-number" x="826.5714285714287" y="573.0">2</text>
<rect class="cell" x="848.5714285714287" y="555.0" width="165.71428571428572" height="145.0" fill="#ffffff" stroke="#ddd"/>
<text class="day-number" x="992.2857142857144" y="573.0">3</text>
<rect class="cell" x="1014.2857142857143" y="555.0" width="165.71428571428572" height="145.0" fill="#e5f1ff" stroke="#ddd"/>
<text class="day-number" x="1158.0" y="573.0">4</text>
<rect x="187.71428571428572" y="142.0" width="659.8571428571429" height="18" fill="#f9e79f" stroke="#b0b0b0"/>
<text class="event" x="191.71428571428572" y="156.0">田中風舞: インターン</text>
<rect x="187.71428571428572" y="163.0" width="825.5714285714287" height="18" fill="#d5f5e3" stroke="#b0b0b0"/>
<text class="event" x="191.71428571428572" y="177.0">野田武志: 忙しい</text>
<rect x="684.8571428571429" y="184.0" width="328.42857142857156" height="18" fill="#ffc7ce" stroke="#b0b0b0"/>
<text class="event" x="688.8571428571429" y="198.0">小林愛実: 隠岐旅行</text>
<rect x="850.5714285714287" y="142.0" width="328.42857142857133" height="18" fill="#ffc7ce" stroke="#b0b0b0"/>
<text class="event" x="854.5714285714287" y="156.0">山中駿: 資格試験</text>
<rect x="22.0" y="287.0" width="162.71428571428572" height="18" fill="#cfe8ff" stroke="#b0b0b0"/>
<text class="event" x="26.0" y="301.0">伊藤大輝: 記録会</text>
<rect x="22.0" y="308.0" width="162.71428571428572" height="18" fill="#ffc7ce" stroke="#b0b0b0"/>
<text class="event" x="26.0" y="322.0">山中駿: 資格試験</text>
<rect x="22.0" y="329.0" width="328.42857142857144" height="18" fill="#f9e79f" stroke="#b0b0b0"/>
<text class="event" x="26.0" y="343.0">五十嵐遥斗: 万博</text>
<rect x="187.71428571428572" y="287.0" width="825.5714285714287" height="18" fill="#d5f5e3" stroke="#b0b0b0"/>
<text class="event" x="191.71428571428572" y="301.0">野田武志: 外病院実習</text>
<rect x="353.42857142857144" y="308.0" width="494.1428571428572" height="18" fill="#ffc7ce" stroke="#b0b0b0"/>
<text class="event" x="357.42857142857144" y="322.0">山中駿: 日本国際博覧会</text>
<rect x="353.42857142857144" y="329.0" width="825.5714285714286" height="18" fill="#cfe8ff" stroke="#b0b0b0"/>
<text class="event" x="357.42857142857144" y="343.0">音羽拓: 海外</text>
<rect x="684.8571428571429" y="350.0" width="162.71428571428578" height="18" fill="#cfe8ff" stroke="#b0b0b0"/>
<text class="event" x="688.8571428571429" y="364.0">伊田彩桜: YOASOBIのライブ</text>
<rect x="850.5714285714287" y="308.0" width="162.71428571428578" height="18" fill="#d5f5e3" stroke="#b0b0b0"/>
<text class="event" x="854.5714285714287" y="322.0">福田敦也: 私用</text>
<rect x="850.5714285714287" y="350.0" width="328.42857142857133" height="18" fill="#d5f5e3" stroke="#b0b0b0"/>
<text class="event" x="854.5714285714287" y="364.0">野田武志: 忙しい</text>
<rect x="850.5714285714287" y="371.0" width="328.42857142857133" height="18" fill="#f9e79f" stroke="#b0b0b0"/>
<text class="event" x="854.5714285714287" y="385.0">爲佐信彦: 旅行</text>
<rect x="850.5714285714287" y="392.0" width="328.42857142857133" height="18" fill="#f9e79f" stroke="#b0b0b0"/>
<text class="event" x="854.5714285714287" y="406.0">池添秀: 卒業旅行</text>
<rect x="1016.2857142857143" y="287.0" width="162.71428571428567" height="18" fill="#f9e79f" stroke="#b0b0b0"/>
<text class="event" x="1020.2857142857143" y="301.0">上田琉颯: 家族旅行</text>
<rect x="1016.2857142857143" y="308.0" width="162.71428571428567" height="18" fill="#cfe8ff" stroke="#b0b0b0"/>
<text class="event" x="1020.2857142857143" y="322.0">伊藤大輝: 熱海旅行</text>
<rect x="1016.2857142857143" y="413.0" width="162.71428571428567" height="18" fill="#f9e79f" stroke="#b0b0b0"/>
<text class="event" x="1020.2857142857143" y="427.0">新康太朗: リーグ</text>
<rect x="22.0" y="432.0" width="162.71428571428572" height="18" fill="#d5f5e3" stroke="#b0b0b0"/>
<text class="event" x="26.0" y="446.0">野田武志: 忙しい</text>
<rect x="22.0" y="453.0" width="162.71428571428572" height="18" fill="#f9e79f" stroke="#b0b0b0"/>
<text class="event" x="26.0" y="467.0">新康太朗: リーグ</text>
<rect x="22.0" y="474.0" width="162.71428571428572" height="18" fill="#f9e79f" stroke="#b0b0b0"/>
<text class="event" x="26.0" y="488.0">爲佐信彦: 旅行</text>
<rect x="22.0" y="495.0" width="494.1428571428571" height="18" fill="#f9e79f" stroke="#b0b0b0"/>
<text class="event" x="26.0" y="509.0">上田琉颯: 家族旅行</text>
<rect x="22.0" y="516.0" width="494.1428571428571" height="18" fill="#cfe8ff" stroke="#b0b0b0"/>
<text class="event" x="26.0" y="530.0">伊藤大輝: 熱海旅行</text>
<rect x="22.0" y="537.0" width="659.8571428571429" height="18" fill="#f9e79f" stroke="#b0b0b0"/>
<text class="event" x="26.0" y="551.0">池添秀: 卒業旅行</text>
<rect x="22.0" y="558.0" width="991.2857142857144" height="18" fill="#cfe8ff" stroke="#b0b0b0"/>
<text class="event" x="26.0" y="572.0">音羽拓: 海外</text>
<rect x="187.71428571428572" y="432.0" width="328.4285714285714" height="18" fill="#f5cba7" stroke="#b0b0b0"/>
<text class="event" x="191.71428571428572" y="446.0">山下颯太: 私用</text>
<rect x="187.71428571428572" y="453.0" width="825.5714285714287" height="18" fill="#d5f5e3" stroke="#b0b0b0"/>
<text class="event" x="191.71428571428572" y="467.0">野田武志: 外病院実習</text>
<rect x="850.5714285714287" y="432.0" width="328.42857142857133" height="18" fill="#d5f5e3" stroke="#b0b0b0"/>
<text class="event" x="854.5714285714287" y="446.0">野田武志: 韓国</text>
<rect x="22.0" y="577.0" width="162.71428571428572" height="18" fill="#d5f5e3" stroke="#b0b0b0"/>
<text class="event" x="26.0" y="591.0">野田武志: 韓国</text>
<rect x="187.71428571428572" y="577.0" width="328.4285714285714" height="18" fill="#cfe8ff" stroke="#b0b0b0"/>
<text class="event" x="191.71428571428572" y="591.0">音羽拓: 旅行</text>
<rect x="684.8571428571429" y="577.0" width="162.71428571428578" height="18" fill="#cfe8ff" stroke="#b0b0b0"/>
<text class="event" x="688.8571428571429" y="591.0">音羽拓: 私用</text>
</svg>
